<?xml version="1.0" encoding="UTF-8" standalone="no"?>
<svg
   xmlns:dc="http://purl.org/dc/elements/1.1/"
   xmlns:cc="http://creativecommons.org/ns#"
   xmlns:rdf="http://www.w3.org/1999/02/22-rdf-syntax-ns#"
   xmlns:svg="http://www.w3.org/2000/svg"
   xmlns="http://www.w3.org/2000/svg"
   xmlns:sodipodi="http://sodipodi.sourceforge.net/DTD/sodipodi-0.dtd"
   xmlns:inkscape="http://www.inkscape.org/namespaces/inkscape"
   version="1.1"
   id="svg222"
   xml:space="preserve"
   width="2560"
   height="1440"
   viewBox="0 0 2560 1440"
   sodipodi:docname="airshipDiagramBlank.svg"
   inkscape:version="1.0.2 (e86c8708, 2021-01-15)"
   inkscape:export-filename="/Users/danada/Desktop/airshipDiagram.png"
   inkscape:export-xdpi="400"
   inkscape:export-ydpi="400"><metadata
     id="metadata228"><rdf:RDF><cc:Work
         rdf:about=""><dc:format>image/svg+xml</dc:format><dc:type
           rdf:resource="http://purl.org/dc/dcmitype/StillImage" /><dc:title /></cc:Work></rdf:RDF></metadata><defs
     id="defs226"><clipPath
       clipPathUnits="userSpaceOnUse"
       id="clipPath240"><path
         d="M 0,1080 H 1920 V 0 H 0 Z"
         id="path238" /></clipPath><clipPath
       clipPathUnits="userSpaceOnUse"
       id="clipPath296"><path
         d="M 0,1080 H 1920 V 0 H 0 Z"
         id="path294" /></clipPath><clipPath
       clipPathUnits="userSpaceOnUse"
       id="clipPath320"><path
         d="M 0,1080 H 1920 V 0 H 0 Z"
         id="path318" /></clipPath></defs><sodipodi:namedview
     pagecolor="#ffffff"
     bordercolor="#666666"
     borderopacity="1"
     objecttolerance="10"
     gridtolerance="10"
     guidetolerance="10"
     inkscape:pageopacity="0"
     inkscape:pageshadow="2"
     inkscape:window-width="1920"
     inkscape:window-height="1027"
     id="namedview224"
     showgrid="false"
     inkscape:zoom="0.46300326"
     inkscape:cx="1264.7988"
     inkscape:cy="602.18294"
     inkscape:window-x="0"
     inkscape:window-y="25"
     inkscape:window-maximized="0"
     inkscape:current-layer="g230"
     inkscape:document-rotation="0" /><g
     id="g230"
     inkscape:groupmode="layer"
     inkscape:label="Airship"
     transform="matrix(1.3333333,0,0,-1.3333333,0,1440)"><path
       d="M 1256.3187,416.37167 H 734.31874 v -124 h 521.99996 z"
       style="fill:#1e4c7c;fill-opacity:1;fill-rule:nonzero;stroke:#ffffff;stroke-opacity:1"
       id="path232"
       inkscape:export-filename="/Users/danada/Desktop/airshipDiagramWhite.png"
       inkscape:export-xdpi="500"
       inkscape:export-ydpi="500" /><g
       id="g242"
       transform="translate(1181.6045,384.5098)"
       style="stroke:#ffffff;stroke-opacity:1;fill:#1e4c7c;fill-opacity:1;stroke-width:3.75000009;stroke-miterlimit:4;stroke-dasharray:none"
       inkscape:export-filename="/Users/danada/Desktop/airshipDiagramWhite.png"
       inkscape:export-xdpi="500"
       inkscape:export-ydpi="500"><path
         d="m 0,0 c -2.324,0 -4.649,0 -6.974,0.01 h -0.56 c -229.14,0.73 -444.055,22.664 -605.147,61.76 -78.322,19.007 -139.744,41.059 -182.56,65.542 -43.704,24.99 -65.863,51.296 -65.863,78.188 0,1.896 0.115,3.819 0.341,5.713 2.732,23.115 21.989,45.843 57.237,67.556 34.593,21.311 83.581,41.025 145.603,58.596 162.332,45.986 399.392,72.817 650.397,73.615 h 0.542 c 2.337,0.01 4.664,0.01 6.99,0.01 223.806,-0.535 405.89,-92.718 405.89,-205.49 0,-54.4 -41.97,-105.727 -118.177,-144.525 C 210.999,21.915 108.818,0.261 0,0"
         style="fill:#1e4c7c;fill-opacity:1;fill-rule:nonzero;stroke:#ffffff;stroke-opacity:1;stroke-width:3.75000009;stroke-miterlimit:4;stroke-dasharray:none"
         id="path244" /></g><g
       id="g250"
       transform="translate(324.08423,799.165)"
       style="fill:#1e4c7c;fill-opacity:1;stroke:#ffffff;stroke-width:3.75;stroke-miterlimit:4;stroke-dasharray:none;stroke-opacity:1"
       inkscape:export-filename="/Users/danada/Desktop/airshipDiagramWhite.png"
       inkscape:export-xdpi="500"
       inkscape:export-ydpi="500"><path
         d="m 0,0 181.308,12.382 c 0.407,0.028 0.814,0.041 1.216,0.041 C 192.16,12.423 200,4.572 200,-5.078 V -76.496 C 138.392,-94.064 89.602,-113.786 54.956,-135.129 26.646,-152.568 8.242,-170.849 0,-189.664 Z"
         style="fill:#1e4c7c;fill-opacity:1;fill-rule:nonzero;stroke:#ffffff;stroke-width:3.75;stroke-miterlimit:4;stroke-dasharray:none;stroke-opacity:1"
         id="path252" /></g><g
       id="g258"
       transform="matrix(0.95646448,0,0,1.5281879,293.45872,579.0416)"
       style="fill:#1e4c7c;fill-opacity:1;stroke:#ffffff;stroke-width:2.39074;stroke-miterlimit:4;stroke-dasharray:none;stroke-opacity:1"
       inkscape:export-filename="/Users/danada/Desktop/airshipDiagramWhite.png"
       inkscape:export-xdpi="500"
       inkscape:export-ydpi="500"><path
         d="m 0,0 c 6.118,7.044 15.004,11 25.028,11 l 209.191,5 c 4.003,0 7.309,-3.306 7.309,-7.369 C 241.528,3.872 237.656,0 232.896,0 Z"
         style="fill:#1e4c7c;fill-opacity:1;fill-rule:nonzero;stroke:#ffffff;stroke-width:2.39074;stroke-miterlimit:4;stroke-dasharray:none;stroke-opacity:1"
         id="path260" /></g><g
       id="g909"
       transform="matrix(1,0,0,-1,324.08423,381.50535)"
       style="fill:#1e4c7c;stroke:#ffffff;stroke-opacity:1;fill-opacity:1;stroke-width:3.75000009;stroke-miterlimit:4;stroke-dasharray:none"
       inkscape:export-filename="/Users/danada/Desktop/airshipDiagramWhite.png"
       inkscape:export-xdpi="500"
       inkscape:export-ydpi="500"><path
         d="m 0,0 181.308,12.382 c 0.407,0.028 0.814,0.041 1.216,0.041 C 192.16,12.423 200,4.572 200,-5.078 V -76.496 C 138.392,-94.064 89.602,-113.786 54.956,-135.129 26.646,-152.568 8.242,-170.849 0,-189.664 Z"
         style="fill:#1e4c7c;fill-opacity:1;fill-rule:nonzero;stroke:#ffffff;stroke-opacity:1;stroke-width:3.75000009;stroke-miterlimit:4;stroke-dasharray:none"
         id="path907" /></g></g></svg>
